<svg id="Capa_1" data-name="Capa 1" xmlns="http://www.w3.org/2000/svg" viewBox="0 0 171.28 206.89"><defs><style>.cls-1{fill:#1d1d1b;}</style></defs><path class="cls-1" d="M146,186H22V21H146ZM33,175H135V32H33Z"/><path class="cls-1" d="M60,91A24,24,0,1,1,84,67,24,24,0,0,1,60,91Zm0-37A13,13,0,1,0,73,67,13,13,0,0,0,60,54Z"/><path class="cls-1" d="M110,91a24,24,0,1,1,24-24A24,24,0,0,1,110,91Zm0-37a13,13,0,1,0,13,13A13,13,0,0,0,110,54Z"/><path class="cls-1" d="M125,154H42V122h83ZM53,143h61V133H53Z"/></svg>